<?xml version="1.0" standalone="no"?>
<!DOCTYPE svg PUBLIC "-//W3C//DTD SVG 1.0//EN" "http://www.w3.org/TR/2001/REC-SVG-20010904/DTD/svg10.dtd">
<svg height="750" width="542" viewBox="0 0 542 750" xmlns="http://www.w3.org/2000/svg">
<title>Man and woman (heterosexual) icon (alternate)</title>
<rect height="750" width="542" fill="rgb(255,255,255)" stroke="none"/>
<g transform="translate(-72,735) scale(0.7,-0.7)" stroke="none" fill="rgb(0,0,0)">
<path d="M846,440
l-42,269
c-4,28,-8,69,-18,94
c-29,19,-75,13,-106,30
c-2,5,-3,10,-2,15
c10,10,22,18,30,28
c15,17,21,40,22,58
c0,59,-44,90,-80,90
c-36,0,-80,-31,-80,-90
c1,-18,7,-41,22,-58
c8,-10,20,-18,30,-28
c1,-5,0,-10,-2,-15
c-31,-17,-77,-11,-106,-30
c-10,-25,-14,-66,-18,-94
l-42,-269
l4,-4
h39
l52,222
h5
l20,-95
l-94,-563
h72
l94,351
h8
l94,-351
h72
l-94,563
l20,95
h5
l52,-222
h39Z"/>
<path transform="translate(100,0) scale(0.96889,0.96889)" d="M378,456
l-33,213
c-6,36,-9,75,-19,110
c-15,17,-49,36,-70,43
v6
c4,-1,10,-2,16,-2
c12,0,24,3,32,10
c-8,11,-16,21,-20,35
c-10,41,2,91,-24,127
c-14,20,-34,31,-55,31
c-21,0,-41,-11,-55,-31
c-26,-36,-14,-86,-24,-127
c-4,-14,-12,-24,-20,-35
c8,-7,20,-10,32,-10
c6,0,12,1,16,2
v-6
c-21,-7,-55,-26,-70,-43
c-10,-35,-13,-74,-19,-110
l-33,-213
l2,-6
h34
l47,230
h3
l29,-104
l-81,-195
h46
l6,-7
v-367
l4,-7
h40
l2,4
l32,372
l6,5
h6
l6,-5
l32,-372
l2,-4
h40
l4,7
v367
l6,7
h46
l-81,195
l29,104
h3
l47,-230
h34Z"/>
</g>
</svg>
